<mxfile host="app.diagrams.net" modified="2022-06-13T04:39:14.740Z" agent="5.0 (Windows NT 10.0; Win64; x64) AppleWebKit/537.36 (KHTML, like Gecko) Chrome/102.0.5005.63 Safari/537.36" etag="Eps_lxY9wySDvVkaRlV9" version="20.0.1" type="github">
  <diagram id="ZFM-qC4R8ZPciTshkOly" name="Page-1">
    <mxGraphModel dx="3217" dy="1800" grid="1" gridSize="10" guides="1" tooltips="1" connect="1" arrows="1" fold="1" page="1" pageScale="1" pageWidth="850" pageHeight="1100" math="0" shadow="0">
      <root>
        <mxCell id="0" />
        <mxCell id="1" parent="0" />
      </root>
    </mxGraphModel>
  </diagram>
</mxfile>
